<svg width="93" height="92" viewBox="0 0 93 92" fill="none" xmlns="http://www.w3.org/2000/svg">
<g opacity="0.5">
<path d="M61.3889 20.6987L55.7663 15.3317L53.9773 13.5427C51.9327 11.4981 49.377 10.4758 46.8213 10.4758C44.01 10.4758 41.4543 11.4981 39.6653 13.5427L37.8763 15.3317C41.9654 19.4208 41.9654 25.8101 37.8763 29.8993L30.7203 37.0553C28.6757 39.0999 26.12 40.1221 23.5643 40.1221C21.0085 40.1221 18.4528 39.0999 16.4083 37.0553L14.6193 38.8443C10.5301 42.9334 10.5301 49.3227 14.6193 53.4119L16.4083 55.2009L21.7753 60.5679C22.7975 61.5902 24.0754 62.1013 25.3533 62.1013C26.6311 62.1013 27.909 61.5902 28.9313 60.5679L36.3428 53.1563C33.0204 48.3004 33.5316 41.4 37.8763 37.0553C40.432 34.4996 43.7544 33.2217 46.8213 33.2217C49.377 33.2217 51.6771 33.9884 53.9773 35.2663L61.3889 27.8547C63.1779 25.8101 63.1779 22.7433 61.3889 20.6987Z" fill="#2D99FD"/>
<path d="M66.7566 58.5236L59.6006 65.6796C57.556 67.7242 57.556 70.7911 59.6006 72.8356L74.1682 58.268C73.1459 57.2458 71.868 56.7346 70.5902 56.7346C69.0567 57.2458 67.7789 57.7569 66.7566 58.5236Z" fill="#2D99FD"/>
<path d="M26.887 33.4769L34.043 26.3209C36.0875 24.2763 36.0875 21.2095 34.043 19.1649L19.4754 33.7325C20.4977 34.7548 21.7755 35.2659 23.0534 35.2659C24.5868 34.7548 25.8647 34.2436 26.887 33.4769Z" fill="#2D99FD"/>
<path d="M77.4904 37.0551L72.1234 31.6881C71.1011 30.6658 69.8232 30.1547 68.5454 30.1547C67.2675 30.1547 65.9896 30.6658 64.9674 31.6881L57.5558 39.0997C60.8782 43.9555 60.3671 50.856 56.0224 55.2007C53.4666 57.7564 50.1442 59.0343 47.0773 59.0343C44.5216 59.0343 42.2215 58.2675 39.9213 56.9897L32.5098 64.4013C30.4652 66.4458 30.4652 69.5127 32.5098 71.5573L37.8768 76.9243L39.6658 78.7133C41.7103 80.7578 44.2661 81.7801 46.8218 81.7801C49.6331 81.7801 52.1888 80.7578 53.9778 78.7133L55.7668 76.9243C51.6776 72.8351 51.6776 66.4458 55.7668 62.3567L62.9228 55.2007C64.9674 53.1561 67.5231 52.1338 70.0788 52.1338C72.6345 52.1338 75.1902 53.1561 77.2348 55.2007L79.0238 53.4117C83.1129 49.3225 83.1129 42.9332 79.0238 38.8441L77.4904 37.0551Z" fill="#2D99FD"/>
<path d="M6.95185 60.5677L15.8969 69.5127C16.9191 70.535 18.4526 70.535 19.4749 69.5127C20.4972 68.4904 20.4972 66.957 19.4749 65.9347L10.5299 56.9897C4.65171 51.1115 4.65171 41.3998 10.5299 35.2661L12.3189 33.4771L34.0424 11.7535L35.8315 9.9645C38.8983 6.89764 42.7319 5.36421 46.5655 5.36421C50.399 5.36421 54.4882 6.89764 57.2995 9.9645L66.2445 18.9095C67.2668 19.9318 68.8002 19.9318 69.8225 18.9095C70.8448 17.8872 70.8448 16.3538 69.8225 15.3315L60.8775 6.3865C52.9548 -1.53622 39.9206 -1.53622 31.9979 6.3865L6.69628 31.6881C-0.97087 39.6108 -0.970871 52.3894 6.95185 60.5677Z" fill="#2D99FD"/>
<path d="M73.9111 26.0654L82.8561 35.0104C88.7342 40.8886 88.7342 50.6003 82.8561 56.734L81.0671 58.523L59.3435 80.2466L57.5545 82.0356C54.4877 85.1025 50.6541 86.6359 46.8205 86.6359C42.9869 86.6359 38.8978 85.1025 36.0865 82.0356L27.1415 73.0906C26.1192 72.0683 24.5858 72.0683 23.5635 73.0906C22.5412 74.1129 22.5412 75.6463 23.5635 76.6686L32.5085 85.6136C40.4312 93.5363 53.4654 93.5363 61.3881 85.6136L86.6897 60.312C94.6124 52.3893 94.6124 39.3551 86.6897 31.4324L77.4891 22.4874C76.4668 21.4651 74.9334 21.4651 73.9111 22.4874C72.8888 23.5097 72.8888 25.0431 73.9111 26.0654Z" fill="#2D99FD"/>
<path d="M52.2418 51.4213C55.2359 48.4271 55.2359 43.5726 52.2418 40.5784C49.2476 37.5843 44.3931 37.5843 41.3989 40.5784C38.4047 43.5726 38.4047 48.4271 41.3989 51.4213C44.3931 54.4155 49.2476 54.4155 52.2418 51.4213Z" fill="#2D99FD"/>
</g>
</svg>
