<svg width="74" height="66" viewBox="0 0 74 66" fill="none" xmlns="http://www.w3.org/2000/svg">
<ellipse opacity="0.5" cx="59.0151" cy="14.2177" rx="7.90279" ry="7.90279" fill="#2D99FD"/>
<ellipse opacity="0.5" cx="14.9853" cy="14.2177" rx="7.90279" ry="7.90279" fill="#2D99FD"/>
<path opacity="0.5" d="M73.6919 42.0658C73.6919 50.1715 67.1209 56.7424 59.0153 56.7424V56.7424C50.9096 56.7424 44.3387 50.1715 44.3387 42.0658L44.3387 32.7414C44.3387 28.9541 47.4089 25.8839 51.1961 25.8839L66.8344 25.8839C70.6217 25.8839 73.6919 28.9541 73.6919 32.7414L73.6919 42.0658Z" fill="#2D99FD"/>
<path opacity="0.5" d="M29.6616 42.0658C29.6616 50.1715 23.0907 56.7424 14.985 56.7424V56.7424C6.87935 56.7424 0.308404 50.1715 0.308404 42.0658L0.308405 32.7414C0.308405 28.9541 3.37859 25.8839 7.16585 25.8839L22.8042 25.8839C26.5914 25.8839 29.6616 28.9541 29.6616 32.7414L29.6616 42.0658Z" fill="#2D99FD"/>
<ellipse cx="37.0002" cy="10.718" rx="10.2736" ry="10.2736" fill="white"/>
<path d="M56.0796 46.9204C56.0796 57.4578 47.5374 66 37 66V66C26.4626 66 17.9204 57.4578 17.9204 46.9204L17.9204 34.7986C17.9204 29.8752 21.9116 25.8839 26.8351 25.8839L47.1649 25.8839C52.0884 25.8839 56.0796 29.8752 56.0796 34.7986L56.0796 46.9204Z" fill="white"/>
</svg>
