<?xml version="1.0" encoding="utf-8"?><svg viewBox="0 0 93 92" xmlns="http://www.w3.org/2000/svg" xmlns:xlink="http://www.w3.org/1999/xlink"><style>:root>svg{display:none}:root>svg:target{display:block}</style><svg fill="none" viewBox="0 0 14 8" id="arrow" xmlns="http://www.w3.org/2000/svg"><path d="M1 1l6 6 6-6" stroke="#C4C4C4" stroke-width="2" stroke-linecap="round" stroke-linejoin="round"/></svg><svg fill="none" viewBox="0 0 93 92" id="avatar-empty" xmlns="http://www.w3.org/2000/svg"><g opacity=".5" fill="#2D99FD"><path d="M61.389 20.699l-5.623-5.367-1.789-1.79c-2.044-2.044-4.6-3.066-7.156-3.066-2.811 0-5.367 1.022-7.156 3.067l-1.789 1.789c4.09 4.089 4.09 10.478 0 14.567l-7.156 7.156c-2.044 2.045-4.6 3.067-7.156 3.067-2.555 0-5.111-1.022-7.156-3.067l-1.789 1.79c-4.089 4.088-4.089 10.478 0 14.567l1.79 1.789 5.366 5.367c1.023 1.022 2.3 1.533 3.578 1.533s2.556-.51 3.578-1.533l7.412-7.412c-3.323-4.856-2.811-11.756 1.533-16.1 2.556-2.556 5.878-3.834 8.945-3.834 2.556 0 4.856.766 7.156 2.044l7.412-7.411a5.442 5.442 0 000-7.156zM66.757 58.524L59.6 65.68c-2.045 2.044-2.045 5.111 0 7.156l14.567-14.568c-1.022-1.022-2.3-1.533-3.578-1.533-1.533.51-2.811 1.022-3.833 1.789z"/><path d="M26.887 33.477l7.156-7.156c2.044-2.045 2.044-5.112 0-7.156L19.475 33.733c1.023 1.022 2.3 1.533 3.578 1.533 1.534-.511 2.812-1.022 3.834-1.79zM77.49 37.055l-5.367-5.367c-1.022-1.022-2.3-1.533-3.578-1.533s-2.555.51-3.578 1.533L57.556 39.1c3.322 4.855 2.811 11.756-1.534 16.1-2.555 2.556-5.878 3.834-8.945 3.834-2.555 0-4.855-.767-7.156-2.044L32.51 64.4c-2.045 2.045-2.045 5.112 0 7.156l5.367 5.367 1.789 1.79c2.044 2.044 4.6 3.066 7.156 3.066 2.811 0 5.367-1.022 7.156-3.067l1.789-1.789c-4.09-4.089-4.09-10.478 0-14.567l7.156-7.156c2.044-2.045 4.6-3.067 7.156-3.067s5.111 1.022 7.156 3.067l1.789-1.79c4.089-4.089 4.089-10.478 0-14.567l-1.534-1.789z"/><path d="M6.952 60.568l8.945 8.945c1.022 1.022 2.556 1.022 3.578 0 1.022-1.023 1.022-2.556 0-3.578L10.53 56.99c-5.878-5.879-5.878-15.59 0-21.724l1.789-1.789 21.723-21.723 1.79-1.79c3.066-3.066 6.9-4.6 10.733-4.6 3.834 0 7.923 1.534 10.735 4.6l8.945 8.946c1.022 1.022 2.555 1.022 3.578 0 1.022-1.023 1.022-2.556 0-3.579l-8.945-8.944c-7.923-7.923-20.957-7.923-28.88 0L6.696 31.688C-.97 39.611-.97 52.39 6.952 60.568zM73.911 26.065l8.945 8.945c5.878 5.879 5.878 15.59 0 21.724l-1.789 1.789-21.723 21.724-1.79 1.789c-3.066 3.067-6.9 4.6-10.733 4.6-3.834 0-7.923-1.533-10.734-4.6L27.14 73.09c-1.022-1.023-2.555-1.023-3.577 0-1.023 1.022-1.023 2.555 0 3.578l8.944 8.945c7.923 7.922 20.957 7.922 28.88 0L86.69 60.312c7.922-7.923 7.922-20.957 0-28.88l-9.2-8.945c-1.023-1.022-2.557-1.022-3.579 0-1.022 1.023-1.022 2.556 0 3.578z"/><path d="M52.242 51.421a7.667 7.667 0 10-10.844-10.843 7.667 7.667 0 0010.844 10.843z"/></g></svg><svg fill="none" viewBox="0 0 24 24" id="delete" xmlns="http://www.w3.org/2000/svg"><path d="M3 6h18M8 6V4a2 2 0 012-2h4a2 2 0 012 2v2m3 0v14a2 2 0 01-2 2H7a2 2 0 01-2-2V6h14zM10 11v6M14 11v6" stroke="#fff" stroke-width="2" stroke-linecap="round" stroke-linejoin="round"/></svg><svg fill="none" viewBox="0 0 24 24" id="minus" xmlns="http://www.w3.org/2000/svg"><path d="M5 12h14" stroke="#C4C4C4" stroke-width="2" stroke-linecap="round" stroke-linejoin="round"/></svg><svg fill="none" viewBox="0 0 24 24" id="plus" xmlns="http://www.w3.org/2000/svg"><path d="M12 5v14M5 12h14" stroke="#D3D7DB" stroke-width="2" stroke-linecap="round" stroke-linejoin="round"/></svg><svg fill="none" viewBox="0 0 24 24" id="plus-white" xmlns="http://www.w3.org/2000/svg"><path d="M12 5v14M5 12h14" stroke="#fff" stroke-width="2" stroke-linecap="round" stroke-linejoin="round"/></svg><svg fill="none" viewBox="0 0 24 24" id="warning" xmlns="http://www.w3.org/2000/svg"><path d="M10.29 3.86L1.82 18a2 2 0 001.71 3h16.94a2 2 0 001.71-3L13.71 3.86a2 2 0 00-3.42 0v0zM12 9v4M12 17h.01" stroke="#FF4161" stroke-width="2" stroke-linecap="round" stroke-linejoin="round"/></svg></svg>